<?xml version="1.0" encoding="UTF-8"?>
<svg width="1439px" height="41px" viewBox="0 0 1439 41" version="1.1" xmlns="http://www.w3.org/2000/svg" xmlns:xlink="http://www.w3.org/1999/xlink">
    <!-- Generator: Sketch 53.1 (72631) - https://sketchapp.com -->
    <title>白色</title>
    <desc>Created with Sketch.</desc>
    <g id="Page-1" stroke="none" stroke-width="1" fill="none" fill-rule="evenodd">
        <g id="白色">
            <rect id="矩形" fill="#FFFFFF" x="0" y="0" width="1439" height="40"></rect>
            <rect id="矩形" fill-opacity="0.3" fill="#D9D9D9" x="0" y="0" width="1439" height="40"></rect>
            <g id="分组-8" stroke="#E3F0FB">
                <polyline id="形状" points="59.9583333 0 59.9583333 40 0 40"></polyline>
                <polyline id="路径" points="119.916667 0 119.916667 40 59.9583333 40 59.9583333 0 59.9583333 0"></polyline>
                <polyline id="路径" points="179.875 0 179.875 40 119.916667 40 119.916667 0 119.916667 0"></polyline>
                <polyline id="路径" points="239.833333 0 239.833333 40 179.875 40 179.875 0 179.875 0"></polyline>
                <polyline id="路径-copy-5" points="299.791667 0 299.791667 40 239.833333 40 239.833333 0 239.833333 0"></polyline>
                <polyline id="路径-copy-6" points="359.75 0 359.75 40 299.791667 40 299.791667 0 299.791667 0"></polyline>
                <polyline id="路径-copy-7" points="419.708333 0 419.708333 40 359.75 40 359.75 0 359.75 0"></polyline>
                <polyline id="路径-copy-8" points="479.666667 0 479.666667 40 419.708333 40 419.708333 0 419.708333 0"></polyline>
                <polyline id="路径-copy-9" points="539.625 0 539.625 40 479.666667 40 479.666667 0 479.666667 0"></polyline>
                <polyline id="路径-copy-10" points="599.583333 0 599.583333 40 539.625 40 539.625 0 539.625 0"></polyline>
                <polyline id="路径-copy-11" points="659.541667 0 659.541667 40 599.583333 40 599.583333 0 599.583333 0"></polyline>
                <polyline id="路径-copy-12" points="719.5 0 719.5 40 659.541667 40 659.541667 0 659.541667 0"></polyline>
                <polyline id="路径-copy-13" points="779.458333 0 779.458333 40 719.5 40 719.5 0 719.5 0"></polyline>
                <polyline id="路径-copy-14" points="839.416667 0 839.416667 40 779.458333 40 779.458333 0 779.458333 0"></polyline>
                <polyline id="路径-copy-15" points="899.375 0 899.375 40 839.416667 40 839.416667 0 839.416667 0"></polyline>
                <polyline id="路径-copy-16" points="959.333333 0 959.333333 40 899.375 40 899.375 0 899.375 0"></polyline>
                <polyline id="路径-copy-17" points="1019.29167 0 1019.29167 40 959.333333 40 959.333333 0 959.333333 0"></polyline>
                <polyline id="路径-copy-18" points="1079.25 0 1079.25 40 1019.29167 40 1019.29167 0 1019.29167 0"></polyline>
                <polyline id="路径-copy-19" points="1139.20833 0 1139.20833 40 1079.25 40 1079.25 0 1079.25 0"></polyline>
                <polyline id="路径-copy-20" points="1199.16667 0 1199.16667 40 1139.20833 40 1139.20833 0 1139.20833 0"></polyline>
                <polyline id="路径-copy-21" points="1259.125 0 1259.125 40 1199.16667 40 1199.16667 0 1199.16667 0"></polyline>
                <polyline id="路径-copy-22" points="1319.08333 0 1319.08333 40 1259.125 40 1259.125 0 1259.125 0"></polyline>
                <polyline id="路径-copy-23" points="1379.04167 0 1379.04167 40 1319.08333 40 1319.08333 0 1319.08333 0"></polyline>
                <polyline id="路径" points="1439 40 1379.04167 40 1379.04167 0 1379.04167 0"></polyline>
            </g>
        </g>
    </g>
</svg>