<?xml version="1.0" encoding="UTF-8"?>
<svg width="1442px" height="42px" viewBox="0 0 1442 42" version="1.1" xmlns="http://www.w3.org/2000/svg" xmlns:xlink="http://www.w3.org/1999/xlink">
    <!-- Generator: Sketch 53.1 (72631) - https://sketchapp.com -->
    <title>蓝色</title>
    <desc>Created with Sketch.</desc>
    <g id="Page-1" stroke="none" stroke-width="1" fill="none" fill-rule="evenodd">
        <g id="蓝色" transform="translate(1.000000, 1.000000)">
            <rect id="矩形" fill="#FAFBFD" x="0" y="0" width="1440" height="40"></rect>
            <g id="分组-8" stroke="#E3F0FB">
                <rect id="Rectangle-Copy-20" x="0" y="0" width="60" height="40"></rect>
                <rect id="Rectangle-Copy-23" x="60" y="0" width="60" height="40"></rect>
                <rect id="Rectangle-Copy-24" x="120" y="0" width="60" height="40"></rect>
                <rect id="Rectangle-Copy-25" x="180" y="0" width="60" height="40"></rect>
                <rect id="Rectangle-Copy-26" x="240" y="0" width="60" height="40"></rect>
                <rect id="Rectangle-Copy-27" x="300" y="0" width="60" height="40"></rect>
                <rect id="Rectangle-Copy-28" x="360" y="0" width="60" height="40"></rect>
                <rect id="Rectangle-Copy-29" x="420" y="0" width="60" height="40"></rect>
                <rect id="Rectangle-Copy-30" x="480" y="0" width="60" height="40"></rect>
                <rect id="Rectangle-Copy-31" x="540" y="0" width="60" height="40"></rect>
                <rect id="Rectangle-Copy-32" x="600" y="0" width="60" height="40"></rect>
                <rect id="Rectangle-Copy-33" x="660" y="0" width="60" height="40"></rect>
                <rect id="Rectangle-Copy-34" x="720" y="0" width="60" height="40"></rect>
                <rect id="Rectangle-Copy-35" x="780" y="0" width="60" height="40"></rect>
                <rect id="Rectangle-Copy-36" x="840" y="0" width="60" height="40"></rect>
                <rect id="Rectangle-Copy-37" x="900" y="0" width="60" height="40"></rect>
                <rect id="Rectangle-Copy-38" x="960" y="0" width="60" height="40"></rect>
                <rect id="Rectangle-Copy-39" x="1020" y="0" width="60" height="40"></rect>
                <rect id="Rectangle-Copy-40" x="1080" y="0" width="60" height="40"></rect>
                <rect id="Rectangle-Copy-41" x="1140" y="0" width="60" height="40"></rect>
                <rect id="Rectangle-Copy-42" x="1200" y="0" width="60" height="40"></rect>
                <rect id="Rectangle-Copy-43" x="1260" y="0" width="60" height="40"></rect>
                <rect id="Rectangle-Copy-44" x="1320" y="0" width="60" height="40"></rect>
                <rect id="Rectangle-Copy-45" x="1380" y="0" width="60" height="40"></rect>
            </g>
            <rect id="矩形" fill-opacity="0.3" fill="#D9D9D9" x="0" y="0" width="1440" height="40"></rect>
        </g>
    </g>
</svg>